<?xml version="1.0" encoding="UTF-8"?>
<svg xmlns="http://www.w3.org/2000/svg" xmlns:xlink="http://www.w3.org/1999/xlink" width="46px" height="46px" viewBox="0 0 46 46" version="1.1">
<g id="surface1">
<path style=" stroke:none;fill-rule:nonzero;fill:rgb(0%,0%,0%);fill-opacity:1;" d="M 0 23 L 0 46 L 46 46 L 46 0 L 0 0 Z M 27.199219 5.367188 C 35.382812 7.457031 40.804688 14.375 40.785156 22.675781 C 40.785156 25.242188 40.480469 27.023438 39.65625 29.171875 C 37.96875 33.542969 34.863281 36.875 30.609375 38.925781 C 28.980469 39.695312 28.117188 39.90625 27.792969 39.558594 C 27.695312 39.464844 27.601562 37.835938 27.5625 35.9375 C 27.503906 32.601562 27.484375 32.449219 26.988281 31.566406 L 26.46875 30.667969 L 27.101562 30.667969 C 28.003906 30.667969 29.652344 30.148438 30.800781 29.496094 C 33.425781 28.003906 34.671875 25.203125 34.460938 21.292969 C 34.367188 19.625 34.039062 18.707031 33.121094 17.402344 C 32.910156 17.078125 32.792969 16.714844 32.871094 16.503906 C 33.101562 15.734375 33.023438 13.511719 32.71875 12.785156 C 32.46875 12.226562 32.316406 12.074219 31.914062 12.074219 C 31.222656 12.074219 29.476562 12.726562 28.40625 13.359375 C 27.523438 13.894531 27.484375 13.914062 26.449219 13.664062 C 25.453125 13.4375 21.292969 13.320312 20.375 13.492188 C 18.574219 13.859375 18.304688 13.839844 17.328125 13.28125 C 15.964844 12.476562 14.71875 12.035156 13.972656 12.113281 C 13.417969 12.171875 13.300781 12.265625 13.109375 12.9375 C 12.824219 13.875 12.785156 15.601562 13.015625 16.425781 C 13.148438 16.90625 13.128906 17.097656 12.839844 17.347656 C 12.648438 17.519531 12.246094 18.1875 11.960938 18.839844 C 11.460938 19.933594 11.402344 20.222656 11.421875 22.15625 C 11.421875 23.863281 11.519531 24.515625 11.863281 25.511719 C 12.457031 27.179688 13.398438 28.425781 14.625 29.210938 C 15.699219 29.898438 17.730469 30.628906 18.746094 30.703125 C 19.414062 30.742188 19.511719 30.878906 19.089844 31.222656 C 18.9375 31.355469 18.707031 31.816406 18.574219 32.277344 C 18.378906 32.964844 18.226562 33.160156 17.691406 33.3125 C 16.847656 33.5625 15.542969 33.464844 14.796875 33.082031 C 14.472656 32.910156 13.839844 32.296875 13.4375 31.738281 C 12.382812 30.320312 11.632812 29.824219 10.5625 29.824219 C 9.390625 29.804688 9.390625 30.207031 10.523438 31.070312 C 11.078125 31.492188 11.578125 32.125 11.960938 32.910156 C 13.128906 35.226562 14.261719 35.917969 16.828125 35.898438 L 18.398438 35.859375 L 18.398438 37.566406 C 18.398438 39.523438 18.226562 39.789062 17.097656 39.617188 C 15.390625 39.328125 11.5 36.859375 9.773438 34.941406 C 8.546875 33.578125 6.957031 31.050781 6.402344 29.574219 C 5.289062 26.640625 5.078125 25.472656 5.097656 22.425781 C 5.15625 13.859375 11.441406 6.515625 19.933594 5.078125 C 21.925781 4.753906 25.300781 4.867188 27.199219 5.367188 Z M 27.199219 5.367188 "/>
</g>
</svg>
