<?xml version="1.0" encoding="UTF-8"?>
<svg xmlns="http://www.w3.org/2000/svg" xmlns:xlink="http://www.w3.org/1999/xlink" width="125px" height="46px" viewBox="0 0 124 46" version="1.1">
<defs>
<clipPath id="clip1">
  <path d="M 81 2 L 108 2 L 108 28 L 81 28 Z M 81 2 "/>
</clipPath>
<clipPath id="clip2">
  <path d="M 105.53125 6.710938 C 101.675781 1.59375 93.507812 1.246094 87.285156 5.9375 C 81.0625 10.628906 79.144531 18.582031 83 23.703125 C 86.855469 28.820312 95.023438 29.167969 101.246094 24.476562 C 107.46875 19.785156 109.386719 11.832031 105.53125 6.710938 Z M 105.53125 6.710938 "/>
</clipPath>
<clipPath id="clip3">
  <path d="M 67.132812 12.667969 L 99.285156 -11.578125 L 121.53125 17.964844 L 89.378906 42.210938 Z M 67.132812 12.667969 "/>
</clipPath>
<clipPath id="clip4">
  <path d="M 105.53125 6.710938 C 101.675781 1.59375 93.507812 1.246094 87.285156 5.9375 C 81.0625 10.628906 79.144531 18.582031 83 23.703125 C 86.855469 28.820312 95.023438 29.167969 101.246094 24.476562 C 107.46875 19.785156 109.386719 11.832031 105.53125 6.710938 Z M 105.53125 6.710938 "/>
</clipPath>
<clipPath id="clip5">
  <path d="M 76.085938 14.640625 L 98.597656 -2.335938 L 112.574219 16.222656 L 90.058594 33.199219 Z M 76.085938 14.640625 "/>
</clipPath>
<clipPath id="clip6">
  <path d="M 81 2 L 108 2 L 108 28 L 81 28 Z M 81 2 "/>
</clipPath>
<clipPath id="clip7">
  <path d="M 105.53125 6.710938 C 101.675781 1.59375 93.507812 1.246094 87.285156 5.9375 C 81.0625 10.628906 79.144531 18.582031 83 23.703125 C 86.855469 28.820312 95.023438 29.167969 101.246094 24.476562 C 107.46875 19.785156 109.386719 11.832031 105.53125 6.710938 Z M 105.53125 6.710938 "/>
</clipPath>
<clipPath id="clip8">
  <path d="M 67.132812 12.667969 L 99.285156 -11.578125 L 121.53125 17.964844 L 89.378906 42.210938 Z M 67.132812 12.667969 "/>
</clipPath>
<clipPath id="clip9">
  <path d="M 105.53125 6.710938 C 101.675781 1.59375 93.507812 1.246094 87.285156 5.9375 C 81.0625 10.628906 79.144531 18.582031 83 23.703125 C 86.855469 28.820312 95.023438 29.167969 101.246094 24.476562 C 107.46875 19.785156 109.386719 11.832031 105.53125 6.710938 Z M 105.53125 6.710938 "/>
</clipPath>
<clipPath id="clip10">
  <path d="M 79.292969 25.785156 L 87.0625 -1.332031 L 109.382812 5.074219 L 101.613281 32.191406 Z M 79.292969 25.785156 "/>
</clipPath>
<clipPath id="clip11">
  <path d="M 81 2 L 108 2 L 108 28 L 81 28 Z M 81 2 "/>
</clipPath>
<clipPath id="clip12">
  <path d="M 105.53125 6.710938 C 101.675781 1.59375 93.507812 1.246094 87.285156 5.9375 C 81.0625 10.628906 79.144531 18.582031 83 23.703125 C 86.855469 28.820312 95.023438 29.167969 101.246094 24.476562 C 107.46875 19.785156 109.386719 11.832031 105.53125 6.710938 Z M 105.53125 6.710938 "/>
</clipPath>
<clipPath id="clip13">
  <path d="M 67.132812 12.667969 L 99.285156 -11.578125 L 121.53125 17.964844 L 89.378906 42.210938 Z M 67.132812 12.667969 "/>
</clipPath>
<clipPath id="clip14">
  <path d="M 105.53125 6.710938 C 101.675781 1.59375 93.507812 1.246094 87.285156 5.9375 C 81.0625 10.628906 79.144531 18.582031 83 23.703125 C 86.855469 28.820312 95.023438 29.167969 101.246094 24.476562 C 107.46875 19.785156 109.386719 11.832031 105.53125 6.710938 Z M 105.53125 6.710938 "/>
</clipPath>
<clipPath id="clip15">
  <path d="M 76.085938 14.640625 L 98.597656 -2.335938 L 112.574219 16.222656 L 90.058594 33.199219 Z M 76.085938 14.640625 "/>
</clipPath>
<clipPath id="clip16">
  <path d="M 81 2 L 108 2 L 108 28 L 81 28 Z M 81 2 "/>
</clipPath>
<clipPath id="clip17">
  <path d="M 105.53125 6.710938 C 101.675781 1.59375 93.507812 1.246094 87.285156 5.9375 C 81.0625 10.628906 79.144531 18.582031 83 23.703125 C 86.855469 28.820312 95.023438 29.167969 101.246094 24.476562 C 107.46875 19.785156 109.386719 11.832031 105.53125 6.710938 Z M 105.53125 6.710938 "/>
</clipPath>
<clipPath id="clip18">
  <path d="M 67.132812 12.667969 L 99.285156 -11.578125 L 121.53125 17.964844 L 89.378906 42.210938 Z M 67.132812 12.667969 "/>
</clipPath>
<clipPath id="clip19">
  <path d="M 105.53125 6.710938 C 101.675781 1.59375 93.507812 1.246094 87.285156 5.9375 C 81.0625 10.628906 79.144531 18.582031 83 23.703125 C 86.855469 28.820312 95.023438 29.167969 101.246094 24.476562 C 107.46875 19.785156 109.386719 11.832031 105.53125 6.710938 Z M 105.53125 6.710938 "/>
</clipPath>
<clipPath id="clip20">
  <path d="M 79.292969 25.785156 L 87.0625 -1.332031 L 109.382812 5.074219 L 101.613281 32.191406 Z M 79.292969 25.785156 "/>
</clipPath>
<clipPath id="clip21">
  <path d="M 81 2 L 108 2 L 108 28 L 81 28 Z M 81 2 "/>
</clipPath>
<clipPath id="clip22">
  <path d="M 105.53125 6.710938 C 101.675781 1.59375 93.507812 1.246094 87.285156 5.9375 C 81.0625 10.628906 79.144531 18.582031 83 23.703125 C 86.855469 28.820312 95.023438 29.167969 101.246094 24.476562 C 107.46875 19.785156 109.386719 11.832031 105.53125 6.710938 Z M 105.53125 6.710938 "/>
</clipPath>
<clipPath id="clip23">
  <path d="M 67.132812 12.667969 L 99.285156 -11.578125 L 121.53125 17.964844 L 89.378906 42.210938 Z M 67.132812 12.667969 "/>
</clipPath>
<clipPath id="clip24">
  <path d="M 105.53125 6.710938 C 101.675781 1.59375 93.507812 1.246094 87.285156 5.9375 C 81.0625 10.628906 79.144531 18.582031 83 23.703125 C 86.855469 28.820312 95.023438 29.167969 101.246094 24.476562 C 107.46875 19.785156 109.386719 11.832031 105.53125 6.710938 Z M 105.53125 6.710938 "/>
</clipPath>
<clipPath id="clip25">
  <path d="M 81 2 L 108 2 L 108 28 L 81 28 Z M 81 2 "/>
</clipPath>
<clipPath id="clip26">
  <path d="M 105.53125 6.710938 C 101.675781 1.59375 93.507812 1.246094 87.285156 5.9375 C 81.0625 10.628906 79.144531 18.582031 83 23.703125 C 86.855469 28.820312 95.023438 29.167969 101.246094 24.476562 C 107.46875 19.785156 109.386719 11.832031 105.53125 6.710938 Z M 105.53125 6.710938 "/>
</clipPath>
<clipPath id="clip27">
  <path d="M 67.132812 12.667969 L 99.285156 -11.578125 L 121.53125 17.964844 L 89.378906 42.210938 Z M 67.132812 12.667969 "/>
</clipPath>
<clipPath id="clip28">
  <path d="M 87 7 L 102 7 L 102 23 L 87 23 Z M 87 7 "/>
</clipPath>
<clipPath id="clip29">
  <path d="M 105.53125 6.710938 C 101.675781 1.59375 93.507812 1.246094 87.285156 5.9375 C 81.0625 10.628906 79.144531 18.582031 83 23.703125 C 86.855469 28.820312 95.023438 29.167969 101.246094 24.476562 C 107.46875 19.785156 109.386719 11.832031 105.53125 6.710938 Z M 105.53125 6.710938 "/>
</clipPath>
<clipPath id="clip30">
  <path d="M 67.132812 12.667969 L 99.285156 -11.578125 L 121.53125 17.964844 L 89.378906 42.210938 Z M 67.132812 12.667969 "/>
</clipPath>
</defs>
<g id="surface1">
<path style=" stroke:none;fill-rule:nonzero;fill:rgb(0%,0%,0%);fill-opacity:1;" d="M 64.015625 15.234375 L 69.902344 14.855469 C 70.039062 15.820312 70.285156 16.535156 70.6875 17.050781 C 71.335938 17.859375 72.230469 18.261719 73.417969 18.261719 C 74.292969 18.261719 74.988281 18.058594 75.457031 17.632812 C 75.90625 17.296875 76.171875 16.761719 76.171875 16.199219 C 76.171875 15.660156 75.925781 15.148438 75.5 14.808594 C 75.054688 14.40625 74 14.003906 72.34375 13.644531 C 69.636719 13.039062 67.6875 12.234375 66.546875 11.203125 C 65.402344 10.238281 64.753906 8.828125 64.796875 7.328125 C 64.796875 6.296875 65.113281 5.265625 65.695312 4.414062 C 66.367188 3.449219 67.285156 2.6875 68.382812 2.261719 C 69.566406 1.746094 71.226562 1.480469 73.308594 1.480469 C 75.859375 1.480469 77.808594 1.949219 79.152344 2.914062 C 80.496094 3.855469 81.300781 5.378906 81.546875 7.460938 L 75.726562 7.796875 C 75.570312 6.902344 75.253906 6.25 74.738281 5.824219 C 74.226562 5.398438 73.554688 5.199219 72.679688 5.199219 C 71.964844 5.199219 71.425781 5.355469 71.066406 5.644531 C 70.730469 5.914062 70.507812 6.320312 70.53125 6.765625 C 70.53125 7.101562 70.710938 7.417969 70.980469 7.617188 C 71.269531 7.886719 71.964844 8.132812 73.0625 8.359375 C 75.769531 8.941406 77.695312 9.523438 78.882812 10.128906 C 80.070312 10.734375 80.917969 11.472656 81.433594 12.347656 C 81.972656 13.242188 82.242188 14.273438 82.21875 15.324219 C 82.21875 16.582031 81.859375 17.835938 81.144531 18.886719 C 80.40625 19.988281 79.375 20.835938 78.164062 21.351562 C 76.890625 21.914062 75.277344 22.203125 73.351562 22.203125 C 69.949219 22.203125 67.597656 21.554688 66.277344 20.234375 C 64.957031 18.910156 64.171875 17.253906 64.015625 15.234375 Z M 1.523438 21.867188 L 1.523438 1.835938 L 11.84375 1.835938 C 13.75 1.835938 15.226562 1.996094 16.234375 2.332031 C 17.21875 2.644531 18.09375 3.292969 18.675781 4.167969 C 19.324219 5.132812 19.636719 6.25 19.613281 7.417969 C 19.683594 9.386719 18.675781 11.269531 16.949219 12.257812 C 16.277344 12.636719 15.539062 12.90625 14.777344 13.039062 C 15.339844 13.199219 15.898438 13.464844 16.390625 13.78125 C 16.769531 14.09375 17.085938 14.453125 17.375 14.832031 C 17.710938 15.214844 18.003906 15.640625 18.25 16.085938 L 21.25 21.890625 L 14.21875 21.890625 L 10.90625 15.730469 C 10.480469 14.945312 10.121094 14.429688 9.785156 14.183594 C 9.335938 13.871094 8.800781 13.710938 8.261719 13.710938 L 7.726562 13.710938 L 7.726562 21.847656 L 1.523438 21.847656 Z M 7.726562 9.949219 L 10.34375 9.949219 C 10.90625 9.902344 11.441406 9.8125 11.980469 9.679688 C 12.382812 9.613281 12.742188 9.386719 12.988281 9.050781 C 13.59375 8.246094 13.503906 7.101562 12.761719 6.40625 C 12.359375 6.070312 11.578125 5.894531 10.457031 5.894531 L 7.726562 5.894531 Z M 0.113281 39.03125 L 6 38.652344 C 6.136719 39.613281 6.382812 40.332031 6.785156 40.847656 C 7.414062 41.652344 8.332031 42.078125 9.515625 42.078125 C 10.390625 42.078125 11.085938 41.878906 11.554688 41.453125 C 12.003906 41.09375 12.269531 40.578125 12.269531 40.015625 C 12.269531 39.480469 12.023438 38.964844 11.597656 38.628906 C 11.152344 38.226562 10.097656 37.820312 8.417969 37.464844 C 5.710938 36.859375 3.761719 36.050781 2.621094 35.019531 C 1.480469 34.058594 0.828125 32.644531 0.875 31.144531 C 0.875 30.113281 1.1875 29.082031 1.769531 28.230469 C 2.441406 27.269531 3.359375 26.507812 4.457031 26.082031 C 5.644531 25.566406 7.300781 25.296875 9.382812 25.296875 C 11.933594 25.296875 13.882812 25.765625 15.226562 26.730469 C 16.570312 27.695312 17.355469 29.195312 17.601562 31.277344 L 11.777344 31.613281 C 11.621094 30.71875 11.308594 30.070312 10.792969 29.644531 C 10.300781 29.21875 9.605469 29.015625 8.734375 29.039062 C 8.015625 29.039062 7.480469 29.195312 7.121094 29.507812 C 6.761719 29.777344 6.5625 30.179688 6.582031 30.628906 C 6.582031 30.964844 6.761719 31.277344 7.03125 31.480469 C 7.324219 31.75 8.015625 31.996094 9.113281 32.21875 C 11.824219 32.800781 13.75 33.386719 14.933594 33.992188 C 16.121094 34.59375 16.972656 35.335938 17.488281 36.207031 C 18.023438 37.105469 18.292969 38.136719 18.292969 39.167969 C 18.292969 40.421875 17.914062 41.652344 17.21875 42.707031 C 16.480469 43.804688 15.449219 44.65625 14.242188 45.171875 C 12.964844 45.730469 11.351562 46.023438 9.425781 46.023438 C 6.023438 46.023438 3.671875 45.371094 2.351562 44.050781 C 1.03125 42.707031 0.292969 41.046875 0.113281 39.03125 Z M 0.113281 39.03125 "/>
<path style=" stroke:none;fill-rule:nonzero;fill:rgb(0%,0%,0%);fill-opacity:1;" d="M 29.890625 37.464844 L 35.3125 39.097656 C 35.019531 40.464844 34.414062 41.765625 33.585938 42.90625 C 32.824219 43.917969 31.816406 44.699219 30.675781 45.214844 C 29.511719 45.730469 28.035156 46 26.242188 46 C 24.070312 46 22.28125 45.6875 20.914062 45.058594 C 19.527344 44.429688 18.339844 43.3125 17.332031 41.71875 C 16.324219 40.128906 15.832031 38.089844 15.832031 35.601562 C 15.832031 32.289062 16.703125 29.734375 18.472656 27.964844 C 20.242188 26.191406 22.726562 25.296875 25.953125 25.296875 C 28.480469 25.296875 30.453125 25.8125 31.90625 26.820312 C 33.339844 27.851562 34.414062 29.417969 35.132812 31.527344 L 29.667969 32.734375 C 29.535156 32.265625 29.332031 31.792969 29.0625 31.390625 C 28.726562 30.921875 28.300781 30.5625 27.789062 30.292969 C 27.273438 30.023438 26.691406 29.914062 26.109375 29.914062 C 24.699219 29.914062 23.621094 30.472656 22.882812 31.613281 C 22.324219 32.445312 22.03125 33.765625 22.03125 35.558594 C 22.03125 37.777344 22.367188 39.300781 23.039062 40.128906 C 23.710938 40.957031 24.652344 41.363281 25.882812 41.363281 C 27.070312 41.363281 27.964844 41.027344 28.570312 40.375 C 29.175781 39.679688 29.625 38.71875 29.890625 37.464844 Z M 42.542969 25.632812 L 48.722656 25.632812 L 48.722656 32.644531 L 55.484375 32.644531 L 55.484375 25.632812 L 61.707031 25.632812 L 61.707031 45.664062 L 55.484375 45.664062 L 55.484375 37.554688 L 48.722656 37.554688 L 48.722656 45.664062 L 42.542969 45.664062 Z M 42.542969 25.632812 "/>
<path style=" stroke:none;fill-rule:nonzero;fill:rgb(0%,0%,0%);fill-opacity:1;" d="M 60.859375 35.648438 C 60.859375 32.378906 61.777344 29.824219 63.589844 28.007812 C 65.402344 26.191406 67.957031 25.273438 71.203125 25.273438 C 74.539062 25.273438 77.089844 26.171875 78.90625 27.964844 C 80.71875 29.753906 81.613281 32.265625 81.613281 35.492188 C 81.613281 37.84375 81.210938 39.75 80.425781 41.25 C 79.664062 42.730469 78.480469 43.9375 77.023438 44.746094 C 75.523438 45.574219 73.664062 46 71.449219 46 C 69.1875 46 67.328125 45.640625 65.851562 44.925781 C 64.328125 44.164062 63.074219 42.976562 62.246094 41.519531 C 61.328125 39.949219 60.859375 38 60.859375 35.648438 Z M 67.039062 35.671875 C 67.039062 37.6875 67.417969 39.144531 68.15625 40.039062 C 68.894531 40.914062 69.925781 41.363281 71.226562 41.363281 C 72.546875 41.363281 73.574219 40.9375 74.316406 40.0625 C 75.054688 39.1875 75.410156 37.640625 75.410156 35.402344 C 75.410156 33.519531 75.03125 32.128906 74.269531 31.277344 C 73.507812 30.40625 72.480469 29.980469 71.179688 29.980469 C 70.039062 29.933594 68.941406 30.425781 68.179688 31.300781 C 67.417969 32.175781 67.039062 33.632812 67.039062 35.671875 Z M 87.949219 35.648438 C 87.949219 32.378906 88.867188 29.824219 90.683594 28.007812 C 92.496094 26.191406 95.046875 25.273438 98.292969 25.273438 C 101.632812 25.273438 104.207031 26.171875 105.996094 27.964844 C 107.789062 29.753906 108.707031 32.265625 108.707031 35.492188 C 108.707031 37.84375 108.304688 39.75 107.519531 41.25 C 106.757812 42.730469 105.570312 43.9375 104.117188 44.746094 C 102.617188 45.574219 100.757812 46 98.542969 46 C 96.28125 46 94.421875 45.640625 92.945312 44.925781 C 91.421875 44.164062 90.167969 42.976562 89.339844 41.519531 C 88.421875 39.949219 87.949219 38 87.949219 35.648438 Z M 94.128906 35.671875 C 94.128906 37.6875 94.511719 39.144531 95.25 40.039062 C 95.988281 40.914062 97.019531 41.363281 98.316406 41.363281 C 99.636719 41.363281 100.667969 40.9375 101.40625 40.0625 C 102.144531 39.1875 102.503906 37.640625 102.503906 35.402344 C 102.503906 33.519531 102.125 32.128906 101.363281 31.277344 C 100.601562 30.40625 99.570312 29.980469 98.273438 29.980469 C 97.128906 29.933594 96.011719 30.425781 95.273438 31.300781 C 94.511719 32.175781 94.128906 33.632812 94.128906 35.671875 Z M 94.128906 35.671875 "/>
<path style=" stroke:none;fill-rule:nonzero;fill:rgb(0%,0%,0%);fill-opacity:1;" d="M 108.058594 25.632812 L 114.238281 25.632812 L 114.238281 40.734375 L 123.886719 40.734375 L 123.886719 45.664062 L 108.035156 45.664062 L 108.035156 25.632812 Z M 108.058594 25.632812 "/>
<path style=" stroke:none;fill-rule:nonzero;fill:rgb(100%,100%,100%);fill-opacity:1;" d="M 105.53125 6.710938 C 101.675781 1.59375 93.507812 1.246094 87.285156 5.9375 C 81.0625 10.628906 79.144531 18.582031 83 23.703125 C 86.855469 28.820312 95.023438 29.167969 101.246094 24.476562 C 107.46875 19.785156 109.386719 11.832031 105.53125 6.710938 Z M 105.53125 6.710938 "/>
<g clip-path="url(#clip1)" clip-rule="nonzero">
<g clip-path="url(#clip2)" clip-rule="nonzero">
<path style=" stroke:none;fill-rule:nonzero;fill:rgb(100%,100%,100%);fill-opacity:1;" d="M 67.132812 12.667969 L 99.285156 -11.578125 L 121.53125 17.964844 L 89.378906 42.210938 Z M 67.132812 12.667969 "/>
<g clip-path="url(#clip3)" clip-rule="nonzero">
<path style=" stroke:none;fill-rule:nonzero;fill:rgb(100%,100%,100%);fill-opacity:1;" d="M 105.53125 6.710938 C 101.675781 1.59375 93.507812 1.246094 87.285156 5.9375 C 81.0625 10.628906 79.144531 18.582031 83 23.703125 C 86.855469 28.820312 95.023438 29.167969 101.246094 24.476562 C 107.46875 19.785156 109.386719 11.832031 105.53125 6.710938 Z M 105.53125 6.710938 "/>
<g clip-path="url(#clip4)" clip-rule="nonzero">
<path style=" stroke:none;fill-rule:nonzero;fill:rgb(100%,100%,100%);fill-opacity:1;" d="M 76.085938 14.640625 L 98.597656 -2.335938 L 112.574219 16.222656 L 90.058594 33.199219 Z M 76.085938 14.640625 "/>
<g clip-path="url(#clip5)" clip-rule="nonzero">
<path style="fill-rule:nonzero;fill:rgb(100%,100%,100%);fill-opacity:1;stroke-width:4;stroke-linecap:butt;stroke-linejoin:miter;stroke:rgb(0%,0%,0%);stroke-opacity:1;stroke-miterlimit:10;" d="M 483.504949 67.896882 C 483.497887 39.294621 455.297997 16.100863 420.501825 16.096613 C 385.705653 16.092363 357.502595 39.284381 357.499165 67.900565 C 357.506228 96.502826 385.706117 119.696584 420.50229 119.700834 C 455.298462 119.705084 483.50152 96.513066 483.504949 67.896882 Z M 483.504949 67.896882 " transform="matrix(0.178815,-0.134847,0.134752,0.178942,9.924002,59.760641)"/>
</g>
</g>
</g>
</g>
</g>
<g clip-path="url(#clip6)" clip-rule="nonzero">
<g clip-path="url(#clip7)" clip-rule="nonzero">
<g clip-path="url(#clip8)" clip-rule="nonzero">
<g clip-path="url(#clip9)" clip-rule="nonzero">
<g clip-path="url(#clip10)" clip-rule="nonzero">
<path style="fill:none;stroke-width:4;stroke-linecap:butt;stroke-linejoin:miter;stroke:rgb(0%,0%,0%);stroke-opacity:1;stroke-miterlimit:10;" d="M 357.801957 16.997615 L 483.696108 16.99493 L 483.701654 120.710764 L 357.793569 120.70295 Z M 357.801957 16.997615 " transform="matrix(0.178818,-0.134844,0.134749,0.178944,9.814271,59.846479)"/>
</g>
</g>
</g>
</g>
</g>
<g clip-path="url(#clip11)" clip-rule="nonzero">
<g clip-path="url(#clip12)" clip-rule="nonzero">
<g clip-path="url(#clip13)" clip-rule="nonzero">
<g clip-path="url(#clip14)" clip-rule="nonzero">
<path style="fill:none;stroke-width:4;stroke-linecap:butt;stroke-linejoin:miter;stroke:rgb(0%,0%,0%);stroke-opacity:1;stroke-miterlimit:10;" d="M 483.504949 67.896882 C 483.497887 39.294621 455.297997 16.100863 420.501825 16.096613 C 385.705653 16.092363 357.502595 39.284381 357.499165 67.900565 C 357.506228 96.502826 385.706117 119.696584 420.50229 119.700834 C 455.298462 119.705084 483.50152 96.513066 483.504949 67.896882 Z M 483.504949 67.896882 " transform="matrix(0.178815,-0.134847,0.134752,0.178942,9.924002,59.760641)"/>
<path style=" stroke:none;fill-rule:nonzero;fill:rgb(100%,100%,100%);fill-opacity:1;" d="M 76.085938 14.640625 L 98.597656 -2.335938 L 112.574219 16.222656 L 90.058594 33.199219 Z M 76.085938 14.640625 "/>
<g clip-path="url(#clip15)" clip-rule="nonzero">
<path style="fill-rule:nonzero;fill:rgb(100%,100%,100%);fill-opacity:1;stroke-width:4;stroke-linecap:butt;stroke-linejoin:miter;stroke:rgb(0%,0%,0%);stroke-opacity:1;stroke-miterlimit:10;" d="M 483.504949 67.896882 C 483.497887 39.294621 455.297997 16.100863 420.501825 16.096613 C 385.705653 16.092363 357.502595 39.284381 357.499165 67.900565 C 357.506228 96.502826 385.706117 119.696584 420.50229 119.700834 C 455.298462 119.705084 483.50152 96.513066 483.504949 67.896882 Z M 483.504949 67.896882 " transform="matrix(0.178815,-0.134847,0.134752,0.178942,9.924002,59.760641)"/>
</g>
</g>
</g>
</g>
</g>
<g clip-path="url(#clip16)" clip-rule="nonzero">
<g clip-path="url(#clip17)" clip-rule="nonzero">
<g clip-path="url(#clip18)" clip-rule="nonzero">
<g clip-path="url(#clip19)" clip-rule="nonzero">
<g clip-path="url(#clip20)" clip-rule="nonzero">
<path style="fill:none;stroke-width:4;stroke-linecap:butt;stroke-linejoin:miter;stroke:rgb(0%,0%,0%);stroke-opacity:1;stroke-miterlimit:10;" d="M 357.801957 16.997615 L 483.696108 16.99493 L 483.701654 120.710764 L 357.793569 120.70295 Z M 357.801957 16.997615 " transform="matrix(0.178818,-0.134844,0.134749,0.178944,9.814271,59.846479)"/>
</g>
</g>
</g>
</g>
</g>
<g clip-path="url(#clip21)" clip-rule="nonzero">
<g clip-path="url(#clip22)" clip-rule="nonzero">
<g clip-path="url(#clip23)" clip-rule="nonzero">
<g clip-path="url(#clip24)" clip-rule="nonzero">
<path style="fill:none;stroke-width:4;stroke-linecap:butt;stroke-linejoin:miter;stroke:rgb(0%,0%,0%);stroke-opacity:1;stroke-miterlimit:10;" d="M 330.901198 -14.202697 L 510.707622 -14.201015 L 510.703395 150.894003 L 330.896971 150.892321 Z M 330.901198 -14.202697 " transform="matrix(0.178815,-0.134847,0.134752,0.178942,9.876496,59.830528)"/>
</g>
</g>
</g>
</g>
<g clip-path="url(#clip25)" clip-rule="nonzero">
<g clip-path="url(#clip26)" clip-rule="nonzero">
<g clip-path="url(#clip27)" clip-rule="nonzero">
<path style="fill:none;stroke-width:4;stroke-linecap:butt;stroke-linejoin:miter;stroke:rgb(0%,0%,0%);stroke-opacity:1;stroke-miterlimit:10;" d="M 483.504949 67.896882 C 483.497887 39.294621 455.297997 16.100863 420.501825 16.096613 C 385.705653 16.092363 357.502595 39.284381 357.499165 67.900565 C 357.506228 96.502826 385.706117 119.696584 420.50229 119.700834 C 455.298462 119.705084 483.50152 96.513066 483.504949 67.896882 Z M 483.504949 67.896882 " transform="matrix(0.178815,-0.134847,0.134752,0.178942,9.924002,59.760641)"/>
</g>
</g>
</g>
<g clip-path="url(#clip28)" clip-rule="nonzero">
<g clip-path="url(#clip29)" clip-rule="nonzero">
<g clip-path="url(#clip30)" clip-rule="nonzero">
<path style=" stroke:none;fill-rule:nonzero;fill:rgb(0%,0%,0%);fill-opacity:1;" d="M 87.972656 13.734375 L 90.210938 12.167969 L 92.964844 16.085938 C 93.4375 16.714844 93.792969 17.386719 94.0625 18.125 C 94.21875 18.6875 94.175781 19.292969 93.949219 19.828125 C 93.660156 20.5 93.191406 21.0625 92.5625 21.464844 C 91.824219 21.980469 91.195312 22.273438 90.660156 22.363281 C 90.144531 22.449219 89.605469 22.363281 89.113281 22.136719 C 88.578125 21.867188 88.105469 21.488281 87.75 20.996094 L 89.675781 19.203125 C 89.832031 19.449219 90.03125 19.671875 90.257812 19.851562 C 90.414062 19.964844 90.59375 20.03125 90.792969 20.03125 C 90.949219 20.03125 91.109375 19.964844 91.21875 19.875 C 91.441406 19.738281 91.601562 19.472656 91.578125 19.203125 C 91.511719 18.820312 91.355469 18.441406 91.109375 18.148438 Z M 94.691406 16.222656 L 96.726562 14.609375 C 96.953125 14.878906 97.242188 15.078125 97.554688 15.191406 C 98.003906 15.324219 98.472656 15.234375 98.855469 14.945312 C 99.125 14.765625 99.347656 14.519531 99.4375 14.207031 C 99.570312 13.800781 99.347656 13.355469 98.945312 13.21875 C 98.878906 13.199219 98.808594 13.175781 98.742188 13.175781 C 98.472656 13.152344 98.003906 13.265625 97.308594 13.554688 C 96.167969 14.027344 95.273438 14.207031 94.601562 14.136719 C 93.949219 14.070312 93.347656 13.734375 92.988281 13.175781 C 92.71875 12.792969 92.585938 12.347656 92.5625 11.898438 C 92.5625 11.382812 92.695312 10.867188 92.988281 10.441406 C 93.414062 9.835938 93.929688 9.320312 94.554688 8.917969 C 95.496094 8.269531 96.324219 7.953125 97.039062 7.953125 C 97.757812 7.953125 98.429688 8.289062 99.054688 8.984375 L 97.039062 10.574219 C 96.636719 10.058594 95.875 9.949219 95.363281 10.351562 L 95.292969 10.417969 C 95.070312 10.554688 94.914062 10.753906 94.824219 11 C 94.757812 11.179688 94.800781 11.382812 94.914062 11.539062 C 95.003906 11.652344 95.136719 11.742188 95.292969 11.742188 C 95.472656 11.761719 95.785156 11.671875 96.234375 11.472656 C 97.355469 11 98.207031 10.734375 98.789062 10.644531 C 99.28125 10.554688 99.796875 10.597656 100.265625 10.800781 C 100.691406 10.980469 101.046875 11.292969 101.296875 11.671875 C 101.609375 12.121094 101.789062 12.660156 101.808594 13.21875 C 101.832031 13.800781 101.675781 14.363281 101.363281 14.855469 C 100.960938 15.460938 100.445312 15.976562 99.839844 16.378906 C 98.609375 17.230469 97.601562 17.589844 96.792969 17.453125 C 95.921875 17.320312 95.203125 16.871094 94.691406 16.222656 Z M 94.691406 16.222656 "/>
</g>
</g>
</g>
</g>
</svg>
